<svg width="149" height="46" viewBox="0 0 149 46" fill="none" xmlns="http://www.w3.org/2000/svg">
<path d="M0 3.7551C0 1.68122 1.68122 0 3.7551 0H42.2449C44.3188 0 46 1.68122 46 3.7551V42.2449C46 44.3188 44.3188 46 42.2449 46H3.7551C1.68122 46 0 44.3188 0 42.2449V3.7551Z" fill="#DD0031"/>
<path fill-rule="evenodd" clip-rule="evenodd" d="M12.8296 16.8579V19.5424H14.7421V26.627H12.7V29.3002H19.5668V26.627H17.5679V20.7547C18.8358 19.8011 19.8052 19.3734 20.4986 19.3734C20.9332 19.3734 21.1826 19.5111 21.328 19.7334L21.3305 19.7372C21.5016 19.9903 21.6141 20.4584 21.6141 21.203V29.3002H26.374V26.627H24.4507V20.7463C25.0016 20.2926 25.5202 19.9552 26.0063 19.7284C26.5312 19.4835 26.9654 19.3734 27.3165 19.3734C27.7358 19.3734 27.9725 19.4764 28.1014 19.6154L28.1049 19.6191C28.2764 19.7979 28.3834 20.0149 28.4248 20.2803C28.4718 20.5818 28.4968 20.9853 28.4968 21.496V29.3002H33.3V26.627H31.3118V20.4368C31.3118 19.2321 31.0292 18.2782 30.4065 17.6369C29.8 17.0048 28.989 16.7002 28.0081 16.7002C26.716 16.7002 25.3794 17.2746 24.0032 18.3682C23.7546 17.8834 23.428 17.495 23.0181 17.2146C22.5086 16.8661 21.8937 16.7002 21.1901 16.7002C19.9813 16.7002 18.7728 17.159 17.5679 18.0419V16.8579H12.8296Z" fill="white"/>
<path fill-rule="evenodd" clip-rule="evenodd" d="M10.2276 31.8609L10.2253 31.8595C10.0365 31.7469 9.91711 31.5856 9.85578 31.3627C9.79095 31.1002 9.7536 30.6921 9.7536 30.1216V27.9591C9.7536 26.5647 9.58449 25.4413 9.22415 24.6131C8.92739 23.9249 8.43976 23.3859 7.77978 22.9896C8.30698 22.6596 8.71766 22.2693 8.99809 21.8119C9.35752 21.2367 9.5754 20.6056 9.64911 19.9222C9.71946 19.2698 9.7536 18.3156 9.7536 17.0672V16.0709C9.7536 15.331 9.8089 14.8376 9.9003 14.558C9.98937 14.3055 10.1323 14.1569 10.3356 14.0821L10.3411 14.08C10.584 13.9842 10.9639 13.9278 11.5003 13.9278H12V11.5H11.1823C10.1705 11.5 9.35848 11.668 8.77814 12.0389C8.19082 12.4142 7.79786 12.999 7.59575 13.7674L7.59501 13.7703C7.40722 14.5118 7.3182 15.5442 7.3182 16.8521V17.9617C7.3182 18.8197 7.27069 19.5083 7.17947 20.0333L7.17884 20.0372C7.09886 20.5329 6.91444 20.9266 6.63119 21.2328C6.3699 21.5152 5.93033 21.7038 5.25807 21.747L5 21.7636V24.2353L5.25705 24.2529C6.08818 24.3098 6.5907 24.6123 6.85541 25.0931L6.85674 25.0955C7.14987 25.6172 7.3182 26.5154 7.3182 27.8459V29.5328C7.3182 31.2544 7.57379 32.5482 8.14823 33.3345L8.14935 33.336C8.73836 34.1315 9.65143 34.5 10.8233 34.5H12V32.0609H11.3259C10.7771 32.0609 10.4248 31.9812 10.2276 31.8609Z" fill="white"/>
<path fill-rule="evenodd" clip-rule="evenodd" d="M35.7724 31.8609L35.7747 31.8595C35.9635 31.7469 36.0829 31.5856 36.1442 31.3627C36.2091 31.1002 36.2464 30.6921 36.2464 30.1216V27.9591C36.2464 26.5647 36.4155 25.4413 36.7758 24.6131C37.0726 23.9249 37.5602 23.3859 38.2202 22.9896C37.693 22.6596 37.2823 22.2693 37.0019 21.8119C36.6425 21.2367 36.4246 20.6056 36.3509 19.9222C36.2805 19.2698 36.2464 18.3156 36.2464 17.0672V16.0709C36.2464 15.331 36.1911 14.8376 36.0997 14.558C36.0106 14.3055 35.8677 14.1569 35.6644 14.0821L35.6589 14.08C35.416 13.9842 35.0361 13.9278 34.4997 13.9278H34V11.5H34.8177C35.8295 11.5 36.6415 11.668 37.2219 12.0389C37.8092 12.4142 38.2021 12.999 38.4043 13.7674L38.405 13.7703C38.5928 14.5118 38.6818 15.5442 38.6818 16.8521V17.9617C38.6818 18.8197 38.7293 19.5083 38.8205 20.0333L38.8212 20.0372C38.9011 20.5329 39.0856 20.9266 39.3688 21.2328C39.6301 21.5152 40.0697 21.7038 40.7419 21.747L41 21.7636V24.2353L40.743 24.2529C39.9118 24.3098 39.4093 24.6123 39.1446 25.0931L39.1433 25.0955C38.8501 25.6172 38.6818 26.5154 38.6818 27.8459V29.5328C38.6818 31.2544 38.4262 32.5482 37.8518 33.3345L37.8507 33.336C37.2616 34.1315 36.3486 34.5 35.1767 34.5H34V32.0609H34.6741C35.2229 32.0609 35.5752 31.9812 35.7724 31.8609Z" fill="white"/>
<path d="M104.964 17.322V19.8316H102.357V27.3064C102.357 28.0841 102.438 28.5906 102.601 28.8257C102.773 29.0518 103.063 29.1649 103.47 29.1649C103.968 29.1649 104.466 29.079 104.964 28.9071V31.4439C104.095 31.6971 103.393 31.8238 102.859 31.8238C101.682 31.8238 100.836 31.5298 100.32 30.942C99.8037 30.3451 99.5457 29.3277 99.5457 27.8897V19.8316H97.6853V17.322H99.5457V15.165L102.357 12.6011V17.322H104.964Z" fill="#172126"/>
<path fill-rule="evenodd" clip-rule="evenodd" d="M83.7392 25.163H95.7027C95.6484 23.4808 95.2999 22.0248 94.6571 20.7948C94.0143 19.5558 93.1317 18.6062 92.0091 17.946C90.8956 17.2767 89.5874 16.9421 88.0846 16.9421C86.7086 16.9421 85.4502 17.2677 84.3095 17.9189C83.1688 18.561 82.268 19.4563 81.6072 20.6049C80.9554 21.7534 80.6295 23.0422 80.6295 24.4711C80.6295 25.9091 80.9599 27.2024 81.6208 28.3509C82.2907 29.4995 83.2231 30.3948 84.4181 31.0369C85.6131 31.6791 86.9801 32.0001 88.5192 32.0001C90.0039 32.0001 91.3754 31.6926 92.6338 31.0776C93.9012 30.4536 94.9242 29.5357 95.7027 28.3238L93.2312 27.2114C92.6881 28.0163 92.0136 28.6132 91.2079 29.0021C90.4022 29.391 89.5286 29.5854 88.5871 29.5854C87.3015 29.5854 86.2152 29.192 85.328 28.4052C84.4408 27.6093 83.9112 26.5286 83.7392 25.163ZM85.3551 20.3471C86.1518 19.6327 87.0797 19.2754 88.1389 19.2754C89.2524 19.2754 90.2347 19.6327 91.0857 20.3471C91.9367 21.0525 92.4934 21.9886 92.756 23.1552H83.8206C84.047 21.9886 84.5585 21.0525 85.3551 20.3471Z" fill="#172126"/>
<path d="M56.5665 19.8316V29.0835H54V31.5796H61.8761V29.0835H59.3639V21.4731C61.0387 20.2431 62.3921 19.6281 63.4242 19.6281C64.0579 19.6281 64.5106 19.8271 64.7821 20.225C65.0628 20.623 65.2031 21.2786 65.2031 22.1921V31.5796H70.4312V29.0835H68.0141V21.4731C68.7745 20.8581 69.4988 20.3969 70.1868 20.0894C70.8748 19.7819 71.4769 19.6281 71.9929 19.6281C72.5723 19.6281 72.9932 19.7638 73.2558 20.0351C73.5274 20.3064 73.6948 20.6365 73.7582 21.0254C73.8216 21.4143 73.8533 21.9208 73.8533 22.5448V31.5796H79.1357V29.0835H76.6371V21.2696C76.6371 19.8678 76.2931 18.8278 75.605 18.1495C74.9261 17.4712 74.0117 17.132 72.862 17.132C71.2415 17.132 69.5169 17.8736 67.6882 19.3568C67.0726 17.8736 65.9409 17.132 64.2933 17.132C62.6818 17.132 61.0387 17.7968 59.3639 19.1262V17.322H54.163V19.8316H56.5665Z" fill="#172126"/>
<path fill-rule="evenodd" clip-rule="evenodd" d="M119.046 29.0835V22.3549C119.046 20.4828 118.602 19.1126 117.715 18.2444C116.837 17.3762 115.443 16.9421 113.533 16.9421C112.111 16.9421 110.885 17.2225 109.853 17.7832C108.821 18.3349 108.001 19.1759 107.395 20.3064L110.083 20.9711C110.418 20.4104 110.839 19.9944 111.346 19.7231C111.862 19.4427 112.501 19.3026 113.261 19.3026C114.338 19.3026 115.112 19.5422 115.583 20.0215C116.054 20.5009 116.289 21.2967 116.289 22.4091V23.9421C115.085 23.1281 113.786 22.7211 112.392 22.7211C111.559 22.7211 110.731 22.9111 109.907 23.2909C109.083 23.6707 108.427 24.2134 107.938 24.9188C107.458 25.6152 107.218 26.411 107.218 27.3064C107.218 28.1384 107.435 28.8981 107.87 29.5854C108.314 30.2637 108.897 30.8063 109.622 31.2133C110.355 31.6203 111.161 31.8238 112.039 31.8238C113.705 31.8238 115.217 31.159 116.574 29.8296V31.5796H121.436V29.0835H119.046ZM116.289 27.944C115.085 29.0925 113.795 29.6668 112.419 29.6668C111.677 29.6668 111.07 29.4452 110.599 29.0021C110.129 28.5499 109.893 27.9846 109.893 27.3064C109.893 26.6009 110.16 26.0176 110.695 25.5564C111.238 25.0861 111.88 24.851 112.623 24.851C113.845 24.851 115.067 25.3258 116.289 26.2754V27.944Z" fill="#172126"/>
<path d="M127.586 24.8095V15.3612H129.768V13.0483H122.512V15.3612H124.792V24.9326C124.792 27.27 125.335 29.017 126.422 30.1734C127.517 31.3217 129.151 31.8958 131.325 31.8958C133.482 31.8958 135.116 31.3176 136.227 30.1611C137.347 28.9965 137.906 27.307 137.906 25.0925V15.3612H140.211V13.0483H132.979V15.3612H135.136V24.8341C135.136 26.4991 134.81 27.7129 134.156 28.4757C133.51 29.2384 132.567 29.6198 131.325 29.6198C130.099 29.6198 129.168 29.2343 128.53 28.4634C127.901 27.6924 127.586 26.4745 127.586 24.8095Z" fill="#172126"/>
<path d="M146.59 29.2754V15.3612H148.6V13.0483H141.798V15.3612H143.796V29.2754H141.798V31.5882H148.6V29.2754H146.59Z" fill="#172126"/>
</svg>
